<?xml version="1.0" standalone="no"?>
<!DOCTYPE svg PUBLIC "-//W3C//DTD SVG 20010904//EN"
 "http://www.w3.org/TR/2001/REC-SVG-20010904/DTD/svg10.dtd">
<svg version="1.0" xmlns="http://www.w3.org/2000/svg"
 width="1000.000000pt" height="270.000000pt"
 preserveAspectRatio="xMidYMid meet">
 <rect width="100%" height="100%" fill="#282c34" />
<g transform="translate(516.000000,335.000000) scale(0.050000,-0.050000)"
fill="#fff" stroke="none">
<path d="M1825 5166 l-1165 -674 5 -1370 5 -1370 840 -486 c462 -267 990 -572
1174 -678 l334 -192 166 91 c91 51 621 355 1176 677 l1010 586 5 1370 5 1370
-85 53 c-47 28 -265 156 -485 282 -220 127 -705 407 -1077 623 -373 216 -692
392 -710 392 -18 0 -557 -304 -1198 -674z m477 -1046 c77 0 58 -58 -89 -283
-365 -555 -736 -1283 -750 -1467 -10 -149 -10 -149 -254 -150 -267 0 -298 20
-199 130 247 276 894 1418 922 1628 7 57 23 109 36 117 27 18 231 42 269 32
14 -4 44 -7 65 -7z m730 -48 c6 -15 -43 -107 -108 -205 -360 -538 -803 -1362
-804 -1491 0 -51 -11 -81 -35 -93 -134 -70 -472 -35 -415 43 11 15 65 88 121
161 197 261 639 1017 662 1133 15 74 -20 120 -90 120 -307 2 264 353 583 359
46 0 79 -10 86 -27z m1000 -30 c297 -167 145 -553 -273 -692 -116 -39 -122
-64 -44 -177 79 -114 79 -354 1 -504 -298 -571 -1317 -552 -1271 24 19 236
128 357 470 521 201 96 204 100 145 216 -197 386 544 853 972 612z m1108 -772
c148 -178 -470 -1177 -694 -1121 l-49 13 45 74 c276 453 390 700 343 747 -79
79 -546 -280 -793 -608 -83 -111 -272 -150 -272 -57 0 67 382 692 518 847 157
178 329 142 211 -44 -98 -154 -63 -159 145 -20 265 176 484 244 546 169z"/>
<path d="M3520 3918 c-187 -75 -236 -264 -111 -428 66 -87 87 -87 263 -2 380
182 237 585 -152 430z"/>
<path d="M3160 3161 c-464 -141 -590 -742 -156 -741 316 2 541 320 418 592
-62 137 -146 185 -262 149z"/>
</g>
</svg>
